<svg xmlns="http://www.w3.org/2000/svg" viewBox="0 0 48 48" role="img" aria-label="Discord">
  <rect x="1" y="1" width="46" height="46" rx="12" fill="#5865F2"/>
  <path fill="#fff" d="M35 13.7a27 27 0 0 0-6.8-2.1l-.9 1.9a25 25 0 0 0-6.6 0l-1-1.9a27 27 0 0 0-6.7 2.1C8.7 20 7.5 26 8.1 32a28 28 0 0 0 8.3 4.2l2-2.8a18 18 0 0 1-3-1.5l.7-.6c5.7 2.6 11.8 2.6 17.4 0l.8.6a19 19 0 0 1-3 1.5l2 2.8a28 28 0 0 0 8.3-4.2c.7-7-1.2-13-6.6-18.3ZM19.6 28.4c-1.7 0-3.1-1.6-3.1-3.5s1.4-3.5 3.1-3.5 3.1 1.6 3.1 3.5-1.4 3.5-3.1 3.5Zm8.8 0c-1.7 0-3.1-1.6-3.1-3.5s1.4-3.5 3.1-3.5 3.1 1.6 3.1 3.5-1.4 3.5-3.1 3.5Z"/>
</svg>
