<svg xmlns="http://www.w3.org/2000/svg" viewBox="0 0 48 48" role="img" aria-label="WhatsApp">
  <circle cx="24" cy="24" r="23" fill="#25D366"/>
  <path fill="#fff" d="M14 35l1.5-5.5A13.8 13.8 0 1 1 21 35.1c-2.4 0-4.7-.6-6.7-1.7L14 35Zm7.2-4.1c1.8 1 3.6 1.5 5.5 1.5a10.6 10.6 0 1 0-9.1-5.2l.3.5-.9 3.2 3.2-.8.5.3.5.5Z"/>
  <path fill="#25D366" d="M21 18.1c-.3-.8-.7-.8-1-.8h-.8c-.3 0-.7.1-1.1.6-.4.5-1.4 1.4-1.4 3.4s1.5 4 1.7 4.3c.2.3 2.9 4.5 7.2 6.1 3.5 1.3 4.3.8 5.1.7.8-.1 2.5-1 2.9-2 .4-1 .4-1.8.3-2-.1-.2-.4-.3-.9-.5l-2.9-1.4c-.4-.2-.8-.3-1.1.3-.3.5-1.2 1.5-1.5 1.8-.3.3-.5.4-1 .1-2.8-1.4-4.6-2.5-6.4-5.6-.3-.5 0-.7.2-1 .2-.2.5-.5.7-.8.2-.3.3-.5.5-.9.2-.3.1-.6 0-.9L21 18.1Z"/>
</svg>
